<svg width="666" height="912" viewBox="0 0 666 912" fill="none" xmlns="http://www.w3.org/2000/svg">
<rect x="131.071" y="805.394" width="165" height="92.0973" fill="#23418D"/>
<rect x="296.071" y="805.394" width="165" height="92.0973" fill="#23418D"/>
<path d="M298.571 894.798C298.571 905.957 268.74 907.37 203.571 907.37C138.401 907.37 83.0707 918.08 83.0707 906.921C83.0707 895.762 138.401 882.225 203.571 882.225C268.74 882.225 298.571 883.639 298.571 894.798Z" fill="#100505"/>
<path d="M293.071 894.798C293.071 905.957 322.901 907.37 388.071 907.37C453.24 907.37 508.571 918.08 508.571 906.921C508.571 895.762 453.24 882.225 388.071 882.225C322.901 882.225 293.071 883.639 293.071 894.798Z" fill="#100505"/>
<path d="M133.405 567.92H442.927L464.071 808.019C328.781 845.261 253.69 844.965 121.071 808.019L133.405 567.92Z" fill="#C9704A"/>
<ellipse cx="272.571" cy="688.56" rx="7.5" ry="5.70851" fill="#100505"/>
<ellipse cx="272.571" cy="740.317" rx="7.5" ry="5.70851" fill="#100505"/>
<ellipse cx="272.571" cy="792.074" rx="7.5" ry="5.70851" fill="#100505"/>
<line x1="296.071" y1="620.903" x2="296.071" y2="835.529" stroke="#100505" stroke-width="6"/>
<path d="M47.5861 747.368C40.9333 686.146 58.1313 644.943 131.665 560.839L204.822 587.431C148.631 649.622 129.136 689.985 120.742 773.96L47.5861 747.368Z" fill="#C9704A"/>
<path d="M145.846 679.948C131.496 716.407 131.052 736.999 130.641 773.733" stroke="#100505" stroke-width="3" stroke-linecap="round"/>
<ellipse cx="84.5706" cy="763.239" rx="51.5" ry="46.2477" fill="#FF0000"/>
<path d="M146.57 752.013C146.57 763.602 136.313 773.066 123.571 773.066C110.828 773.066 100.571 763.602 100.571 752.013C100.571 740.425 110.828 730.96 123.571 730.96C136.313 730.96 146.57 740.425 146.57 752.013Z" fill="#FF0000" stroke="#100505"/>
<path d="M593.66 606.297C555.223 658.121 514.924 676.1 407.082 682.835L377 605.538C457.953 601.974 499.192 586.426 563.578 529L593.66 606.297Z" fill="#C9704A"/>
<path d="M526.827 547.363C537.869 521.707 567.77 509.593 593.612 520.306C619.455 531.019 631.454 560.502 620.412 586.158C609.37 611.815 579.469 623.929 553.626 613.216C527.783 602.503 515.785 573.019 526.827 547.363Z" fill="#FF0000"/>
<path d="M502.077 560.039C506.181 550.504 517.681 546.114 527.792 550.306C537.903 554.497 542.714 565.648 538.61 575.184C534.506 584.72 523.007 589.109 512.896 584.918C502.785 580.726 497.973 569.575 502.077 560.039Z" fill="#FF0000" stroke="#100505"/>
<path d="M297.077 634.566C292.594 642.852 282.984 647.794 273.503 646.216C226.963 638.466 188.538 621.593 120.362 577.744C112.134 572.452 109.599 562.117 114.317 553.396V553.396C120.348 542.249 135.416 538.442 145.971 545.158C191.881 574.364 227.791 590.417 284.069 605.585C297.137 609.107 303.438 622.809 297.077 634.566V634.566Z" fill="#FF0000"/>
<path d="M290.274 634.566C294.757 642.852 304.368 647.794 313.849 646.216C360.389 638.466 398.813 621.593 466.989 577.744C475.218 572.452 477.752 562.117 473.034 553.396V553.396C467.004 542.249 451.936 538.442 441.38 545.158C395.47 574.364 359.56 590.417 303.283 605.585C290.215 609.107 283.914 622.809 290.274 634.566V634.566Z" fill="#FF0000"/>
<ellipse cx="309.944" cy="388.989" rx="260.5" ry="242.411" transform="rotate(12.2604 309.944 388.989)" fill="#FCDAB3"/>
<path d="M245.177 519.893C249.766 520.89 251.018 524.606 255.909 526.312C265.718 529.733 275.939 531.529 286.139 533.746C297.154 536.139 307.001 536.209 317.064 534.1" stroke="#100505" stroke-width="3" stroke-linecap="round"/>
<path d="M275.502 571.053C276.926 572.582 279.151 573.064 281.081 572.261L351.7 542.886C356.221 541.005 355.624 534.419 350.838 533.383L228.087 506.792C223.301 505.756 220.032 511.504 223.369 515.087L275.502 571.053Z" fill="#100505"/>
<path d="M232.899 510.547L259.543 516.281C259.544 516.281 259.544 516.282 259.545 516.282C260.364 516.459 260.879 517.273 260.688 518.089L257.012 533.834C256.793 534.772 255.759 535.264 254.894 534.841L231.926 523.636C231.41 523.384 231.083 522.861 231.083 522.287L231.083 512.013C231.083 511.25 231.646 510.642 232.349 510.531C232.526 510.503 232.711 510.506 232.899 510.547C232.899 510.547 232.899 510.547 232.899 510.547Z" fill="white" stroke="#100505"/>
<path d="M335.534 532.656L262.394 517.592L259.344 533.288C259.195 534.057 259.663 534.812 260.418 535.02L321.468 551.835C321.791 551.924 322.134 551.902 322.444 551.773L339.618 544.617C339.713 544.578 339.803 544.529 339.887 544.472L350.226 537.414C351.344 536.651 350.959 534.914 349.623 534.695L336.236 532.499L336.227 532.497L336.218 532.495L335.593 532.369L335.534 532.656Z" fill="white" stroke="#100505"/>
<line x1="290.984" y1="522.248" x2="287.984" y2="546.248" stroke="#100505" stroke-width="4"/>
<line x1="317.984" y1="526.248" x2="314.984" y2="550.248" stroke="#100505" stroke-width="4"/>
<ellipse cx="69.9964" cy="81.6935" rx="69.9964" ry="81.6935" transform="matrix(0.75197 0.659197 -0.671942 0.740604 236.189 276.325)" fill="white"/>
<ellipse cx="69.9964" cy="81.6935" rx="69.9964" ry="81.6935" transform="matrix(0.957732 -0.28766 -0.303973 -0.952681 334.912 512.048)" fill="white"/>
<path d="M310.057 378.683C307.246 386.655 306.23 391.247 305.496 399.671" stroke="#100505" stroke-linecap="round"/>
<ellipse cx="273.801" cy="398.289" rx="5" ry="5.06076" transform="rotate(12.2604 273.801 398.289)" fill="#100505"/>
<ellipse cx="334.387" cy="411.455" rx="5" ry="5.06076" transform="rotate(12.2604 334.387 411.455)" fill="#100505"/>
<path d="M575.894 378.067C389.557 257.069 278.91 234.67 71.5357 268.465C113.901 151.843 240.774 82.2415 369.99 110.321C499.206 138.401 585.75 254.38 575.894 378.067Z" fill="#8E77A6"/>
<path d="M72.7522 234.919C284.613 231 397.778 254.653 588.71 347.042L576.999 400.931C394.664 317.863 281.961 292.766 61.0415 288.808L72.7522 234.919Z" fill="#FF0000"/>
<rect x="0.140185" y="0.319019" width="17.4198" height="109.312" rx="8.70989" transform="matrix(0.936925 0.349532 -0.376184 0.926545 379.74 55.5643)" fill="#FF0000" stroke="#100505" stroke-width="0.5"/>
<rect x="0.265758" y="0.244955" width="17.3609" height="109.741" rx="8.68043" transform="matrix(0.999835 -0.0181796 0.0631984 0.998001 354.923 54.7517)" fill="#FF0000" stroke="#100505" stroke-width="0.5"/>
<rect x="-0.00566377" y="0.338095" width="16.9842" height="112.413" rx="8.49212" transform="matrix(0.72521 0.688528 -0.747865 0.663851 403.484 66.2141)" fill="#FF0000" stroke="#100505" stroke-width="0.5"/>
<rect x="-0.130074" y="0.311903" width="16.3962" height="116.353" rx="8.19812" transform="matrix(0.420085 0.907485 -0.940379 0.340128 418.963 82.3792)" fill="#FF0000" stroke="#100505" stroke-width="0.5"/>
<rect x="-0.250154" y="0.240895" width="15.9301" height="119.293" rx="7.96507" transform="matrix(-0.00127925 0.999999 -0.999337 -0.0364196 427.208 104.06)" fill="#FF0000" stroke="#100505" stroke-width="0.5"/>
<rect x="-0.313198" y="0.169273" width="15.8776" height="119.615" rx="7.9388" transform="matrix(-0.292547 0.956251 -0.960245 -0.279158 427.174 119.045)" fill="#FF0000" stroke="#100505" stroke-width="0.5"/>
<rect x="0.343756" y="0.133484" width="16.9243" height="112.827" rx="8.46213" transform="matrix(0.931962 -0.362556 0.443063 0.896491 334.09 62.093)" fill="#FF0000" stroke="#100505" stroke-width="0.5"/>
<rect x="0.366803" y="-0.0196823" width="16.27" height="117.165" rx="8.13498" transform="matrix(0.697255 -0.716823 0.769958 0.638094 316.332 78.32)" fill="#FF0000" stroke="#100505" stroke-width="0.5"/>
</svg>
