<svg width="500" height="500" viewBox="0 0 500 500" fill="none" xmlns="http://www.w3.org/2000/svg">
<g clip-path="url(#clip0_27_8)">
<path d="M49.875 477.774C55.475 490.574 61.5417 518.441 63.875 530.774H438.375C444.208 522.274 456.575 502.574 459.375 491.774C462.875 478.274 479.875 462.774 481.875 438.774C483.875 414.774 477.375 394.274 469.375 366.274C461.375 338.274 421.875 308.274 402.375 295.774C382.875 283.274 112.875 295.274 103.375 302.774C93.875 310.274 67.875 316.274 63.875 325.774C59.875 335.274 55.875 336.274 45.375 356.274C34.875 376.274 40.875 392.274 39.375 407.774C37.875 423.274 42.875 461.774 49.875 477.774Z" fill="#80141D" stroke="black" stroke-width="4"/>
<path d="M430.064 246.09C435.457 338.556 357.997 418.578 256.657 424.489C155.317 430.4 69.0795 359.925 63.6863 267.459C58.2932 174.993 135.753 94.97 237.093 89.0593C338.433 83.1486 424.67 153.624 430.064 246.09Z" fill="#E6BCA6" stroke="black" stroke-width="4"/>
<path d="M253.818 263.979C250.86 293.734 228.16 315.536 203.419 313.076C178.678 310.616 160.715 284.772 163.673 255.017C166.631 225.261 189.331 203.459 214.072 205.919C238.813 208.379 256.776 234.223 253.818 263.979Z" fill="white" stroke="black" stroke-width="2"/>
<path d="M344.053 234.776C354.081 262.946 342.863 292.352 319.44 300.691C296.017 309.03 268.74 293.328 258.711 265.158C248.682 236.988 259.9 207.582 283.323 199.243C306.747 190.904 334.024 206.606 344.053 234.776Z" fill="white" stroke="black" stroke-width="2"/>
<path fill-rule="evenodd" clip-rule="evenodd" d="M422.647 200.787C270.808 143.011 125.531 211.111 61.4304 260.115C60.4198 169.595 137.425 92.8691 236.976 87.0627C322.022 82.1024 396.742 130.461 422.647 200.787Z" fill="#538B9F"/>
<path d="M422.647 200.787L421.935 202.656L426.042 204.219L424.523 200.096L422.647 200.787ZM61.4304 260.115L59.4306 260.138L59.4751 264.128L62.6451 261.704L61.4304 260.115ZM236.976 87.0627L236.86 85.0661L236.976 87.0627ZM423.358 198.918C270.609 140.795 124.597 209.308 60.2157 258.527L62.6451 261.704C126.465 212.915 271.008 145.227 421.935 202.656L423.358 198.918ZM63.4303 260.093C62.4332 170.785 138.457 94.8123 237.093 89.0593L236.86 85.0661C136.394 90.9259 58.4064 168.404 59.4306 260.138L63.4303 260.093ZM237.093 89.0593C321.337 84.1457 395.196 132.05 420.77 201.478L424.523 200.096C398.288 128.873 322.707 80.059 236.86 85.0661L237.093 89.0593Z" fill="black"/>
<path d="M236.375 366.274C238.208 370.108 246.375 377.674 264.375 377.274C275.381 377.03 285.453 371.414 292.875 365.41L236.375 366.274Z" fill="white"/>
<path d="M303.375 354.774C301.238 357.623 297.591 361.595 292.875 365.41M292.875 365.41C285.453 371.414 275.381 377.03 264.375 377.274C246.375 377.674 238.208 370.108 236.375 366.274L292.875 365.41Z" stroke="black" stroke-width="2"/>
<path d="M233.875 390.274C247.208 391.941 279.075 392.474 299.875 381.274" stroke="black" stroke-width="2"/>
<path d="M120.375 364.774C140.542 383.274 196.675 418.674 259.875 412.274C323.075 405.874 375.542 361.941 393.875 340.774" stroke="black" stroke-width="2"/>
<path d="M313.375 453.274C313.375 478.364 292.596 498.774 266.875 498.774C241.154 498.774 220.375 478.364 220.375 453.274C220.375 428.184 241.154 407.774 266.875 407.774C292.596 407.774 313.375 428.184 313.375 453.274Z" fill="#DD8D02" stroke="black" stroke-width="4"/>
<path d="M262.875 406.274C266.208 408.608 272.575 414.574 271.375 419.774C269.875 426.274 258.875 431.774 260.875 438.274C262.875 444.774 278.875 446.274 274.375 456.774C269.875 467.274 260.375 463.774 265.375 474.274C269.375 482.674 261.708 494.108 257.375 498.774" stroke="black" stroke-width="2"/>
<path d="M173.375 89.7743C181.775 84.5743 192.208 76.2743 196.375 72.7743C199.875 71.4409 209.875 69.1742 221.875 70.7742C236.875 72.7742 227.375 69.2743 236.375 63.7743C245.375 58.2743 251.375 66.7743 258.875 72.7743C266.375 78.7743 266.875 71.2743 274.375 72.7743C281.875 74.2743 282.375 89.7743 276.375 94.2743C270.375 98.7743 264.875 96.7743 258.875 96.7743C252.875 96.7743 252.375 105.274 243.875 108.274C235.375 111.274 230.375 100.774 227.375 99.7743C224.375 98.7743 222.875 108.774 213.875 108.274C204.875 107.774 205.875 100.774 202.875 96.7743C199.875 92.7743 186.375 112.274 178.375 110.274C170.375 108.274 162.875 96.2743 173.375 89.7743Z" fill="#E39913" stroke="black" stroke-width="4"/>
<path d="M256.875 169.774C171.275 181.374 87.2083 234.608 55.875 259.774L58.875 270.774C75.675 258.374 111.875 237.608 127.875 228.774C258.275 156.774 383.208 184.774 429.375 207.774V197.774C407.542 183.608 342.475 158.174 256.875 169.774Z" fill="#E39913" stroke="black" stroke-width="4"/>
<path d="M178.375 189.274L174.375 197.274L237.375 218.274L239.875 213.274L178.375 189.274Z" fill="#061C22"/>
<path d="M264.875 216.274L259.875 212.274L314.375 173.774L324.375 182.274L264.875 216.274Z" fill="#061C22"/>
<ellipse cx="240.375" cy="258.774" rx="5" ry="7" fill="#061C22"/>
<ellipse cx="336.375" cy="246.774" rx="5" ry="7" transform="rotate(-9.38636 336.375 246.774)" fill="#061C22"/>
<path d="M252.375 366.774V376.274" stroke="black"/>
<path d="M268.375 366.274L269.875 376.774" stroke="black"/>
</g>
<defs>
<clipPath id="clip0_27_8">
<rect width="500" height="500" fill="white"/>
</clipPath>
</defs>
</svg>
